<svg width="40" height="57" viewBox="0 0 40 57" fill="none" xmlns="http://www.w3.org/2000/svg">
<path d="M28.4863 12.7367C29.2164 12.7367 29.9078 12.593 30.5439 12.3389C29.4542 11.4548 28.9454 9.96276 29.3823 8.53716C29.587 7.87409 29.9631 7.31047 30.4554 6.89053L29.5649 4.18848L27.3192 5.92906C27.4851 6.55346 27.4906 7.23312 27.286 7.89619C26.8269 9.39366 25.4717 10.3662 23.9893 10.4159C24.985 11.825 26.6278 12.7422 28.4863 12.7422V12.7367Z" fill="#D5AC61"/>
<path d="M11.1457 12.7367C10.4156 12.7367 9.72423 12.593 9.08813 12.3389C10.1778 11.4548 10.6866 9.96276 10.2497 8.53716C10.045 7.87409 9.66891 7.31047 9.17663 6.89053L10.0671 4.18848L12.3128 5.92906C12.1469 6.55346 12.1414 7.23312 12.346 7.89619C12.8051 9.39366 14.1603 10.3662 15.6427 10.4159C14.647 11.825 13.0043 12.7422 11.1457 12.7422V12.7367Z" fill="#D5AC61"/>
<path d="M19.9402 56.4888C14.4256 56.4888 9.44189 54.2564 5.84103 50.6481C2.38398 47.2001 0.199126 42.5033 0.0110625 37.2927C0.0110625 37.1545 0 37.0053 0 36.8672V27.1641C0.0719062 26.5563 0.531003 26.059 1.12838 25.9374H38.7189C39.3661 26.0756 39.8584 26.6503 39.8584 27.341V37.0827C39.8584 37.149 39.8584 37.2208 39.8473 37.2927C39.6703 42.4978 37.4855 47.1891 34.0395 50.6371C30.4331 54.2509 25.4439 56.4888 19.9347 56.4888H19.9402Z" fill="#D5AC61"/>
<path d="M38.3928 6.81865L33.1547 19.815L33.1326 19.8591V19.8703C32.9888 20.1908 32.6624 20.4062 32.2918 20.4062H7.35133C6.9752 20.4062 6.64885 20.1796 6.51057 19.8591L6.48845 19.8204L1.25586 6.8518C1.31117 6.83522 1.36648 6.81865 1.42179 6.79654C1.53795 6.74681 1.64304 6.68051 1.73155 6.59762L4.80694 8.80785C5.57025 11.6093 8.13677 13.6705 11.1845 13.6705C14.8351 13.6705 17.7888 10.7197 17.7888 7.07283C17.7888 5.79088 17.4182 4.58628 16.7821 3.57509L19.3099 0C19.4648 0.07735 19.6363 0.12709 19.8243 0.12709C20.0124 0.12709 20.1839 0.08288 20.3332 0L22.8555 3.58062C22.2249 4.59734 21.8543 5.7964 21.8543 7.07835C21.8543 10.7252 24.808 13.6759 28.4531 13.6759C31.5009 13.6759 34.0674 11.6149 34.8307 8.81345L37.9725 6.55894C38.072 6.66393 38.1993 6.74681 38.3375 6.80207C38.3597 6.81312 38.3762 6.81865 38.3984 6.82417L38.3928 6.81865Z" fill="#D5AC61"/>
</svg>
