<svg width="200" height="59" viewBox="0 0 200 59" fill="none" xmlns="http://www.w3.org/2000/svg">
<path d="M55.3792 13.0295V51.5654" stroke="#F9F9F9" stroke-miterlimit="10"/>
<path d="M89.3854 23.8266C87.195 21.539 84.4681 20.3896 81.1991 20.3896H72.5095C72.4542 20.3896 72.4044 20.3952 72.3546 20.4062C72.3325 20.4062 72.3104 20.4173 72.2938 20.4228C72.2827 20.4228 72.2772 20.4228 72.2716 20.4283C72.2495 20.4339 72.2274 20.4394 72.2108 20.4504C71.9287 20.5665 71.7351 20.8428 71.7351 21.1632V43.4316C71.7351 43.846 72.0559 44.1776 72.4597 44.1997H81.1991C84.4681 44.1997 87.195 43.0559 89.3854 40.7627C91.5758 38.4751 92.671 35.6515 92.671 32.2974C92.671 28.9434 91.5758 26.1197 89.3854 23.8266ZM86.2381 37.6518C84.9438 39.0277 83.2623 39.7128 81.1991 39.7128H76.4312V24.882H81.1991C83.2623 24.882 84.9438 25.5672 86.2381 26.9375C87.5324 28.3079 88.1796 30.0982 88.1796 32.2974C88.1796 34.4966 87.5324 36.2814 86.2381 37.6518Z" fill="#F9F9F9"/>
<path d="M100.785 20.561C100.254 20.0194 99.6128 19.7432 98.8606 19.7432C98.1083 19.7432 97.5054 20.0194 96.9744 20.561C96.4379 21.1025 96.1724 21.7379 96.1724 22.4673C96.1724 23.1967 96.4379 23.8211 96.9744 24.3516C97.5054 24.8875 98.136 25.1528 98.8606 25.1528C99.5852 25.1528 100.254 24.8875 100.785 24.3516C101.322 23.8211 101.587 23.1912 101.587 22.4673C101.587 21.7434 101.322 21.1025 100.785 20.561ZM96.6868 27.1917V44.1997H101.079V27.1917H96.6868Z" fill="#F9F9F9"/>
<path d="M119.171 28.5897C117.96 27.341 116.422 26.7166 114.558 26.7166C112.246 26.7166 110.554 27.5122 109.486 29.0981V27.1918H105.869C105.813 27.1918 105.764 27.1973 105.714 27.2083C105.692 27.2083 105.669 27.2194 105.653 27.2249C105.642 27.2249 105.636 27.2249 105.631 27.2304C105.609 27.236 105.587 27.2415 105.57 27.2525C105.288 27.3686 105.094 27.6449 105.094 27.9654V44.1997H109.486V35.0161C109.486 33.6126 109.829 32.5572 110.509 31.8554C111.19 31.1481 112.097 30.8 113.231 30.8C114.254 30.8 115.073 31.0984 115.681 31.7007C116.295 32.303 116.605 33.1705 116.605 34.3033V44.1997H120.997V33.7562C120.997 31.557 120.388 29.833 119.171 28.5897Z" fill="#F9F9F9"/>
<path d="M140.915 27.1918H137.297V29.2031C135.981 27.5454 134.128 26.7166 131.744 26.7166C129.36 26.7166 127.529 27.5841 125.908 29.3191C124.282 31.0542 123.475 33.1816 123.475 35.6957C123.475 38.2099 124.282 40.3373 125.908 42.0723C127.529 43.8074 129.476 44.6749 131.744 44.6749C134.128 44.6749 135.981 43.8516 137.297 42.1939V44.1997H141.689V27.9654C141.689 27.5399 141.341 27.1918 140.915 27.1918ZM135.953 39.1493C135.052 40.0444 133.923 40.492 132.563 40.492C131.202 40.492 130.079 40.0444 129.194 39.1493C128.309 38.2541 127.867 37.1048 127.867 35.6957C127.867 34.2867 128.309 33.1429 129.194 32.2422C130.079 31.347 131.202 30.8995 132.563 30.8995C133.923 30.8995 135.052 31.347 135.953 32.2422C136.849 33.1429 137.297 34.2922 137.297 35.6957C137.297 37.0992 136.849 38.2541 135.953 39.1493Z" fill="#F9F9F9"/>
<path d="M157.26 36.3588C156.657 35.5908 155.927 35.0382 155.064 34.7122C154.201 34.3807 153.338 34.1099 152.475 33.8944C151.612 33.6789 150.882 33.4302 150.279 33.1484C149.677 32.8611 149.378 32.4964 149.378 32.0378C149.378 31.6123 149.566 31.2697 149.936 31.0211C150.313 30.7724 150.783 30.6453 151.352 30.6453C152.392 30.6453 153.189 31.0321 153.742 31.8057C153.88 31.9936 154.107 32.1207 154.367 32.1207C154.472 32.1207 154.572 32.0986 154.66 32.0599C154.715 32.0433 154.76 32.0157 154.804 31.9825L157.824 30.3414C157.16 29.181 156.264 28.2914 155.13 27.667C153.996 27.0481 152.735 26.7332 151.352 26.7332C149.516 26.7332 147.973 27.2139 146.739 28.1809C145.5 29.1423 144.881 30.463 144.881 32.1428C144.881 33.2534 145.185 34.1762 145.782 34.9166C146.385 35.6516 147.121 36.1875 147.984 36.5301C148.841 36.8727 149.704 37.1545 150.567 37.3811C151.43 37.6076 152.166 37.8618 152.763 38.1436C153.366 38.431 153.67 38.7956 153.67 39.2487C153.67 40.2268 152.885 40.713 151.319 40.713C149.914 40.713 148.919 40.2268 148.327 39.2543C148.316 39.2322 148.305 39.2101 148.294 39.1935C148.155 38.9669 147.912 38.8177 147.63 38.8177C147.475 38.8177 147.331 38.862 147.21 38.9393L144.167 40.6467C145.44 43.3433 147.824 44.6915 151.319 44.6915C153.272 44.6915 154.898 44.2218 156.203 43.2825C157.509 42.3431 158.161 40.9949 158.161 39.2487C158.161 38.0939 157.863 37.1324 157.26 36.3588Z" fill="#F9F9F9"/>
<path d="M170.9 31.4134V27.9654C170.9 27.9101 170.895 27.8604 170.883 27.8107C170.878 27.7886 170.872 27.7665 170.867 27.7499C170.867 27.7389 170.867 27.7333 170.861 27.7278C170.861 27.7057 170.85 27.6836 170.839 27.667C170.834 27.656 170.828 27.6394 170.823 27.6283C170.812 27.6062 170.8 27.5841 170.789 27.5676C170.657 27.3465 170.419 27.1973 170.148 27.1918H167.056V23.4731C167.056 23.0476 166.707 22.6995 166.281 22.6995C166.226 22.6995 166.176 22.705 166.127 22.716C166.077 22.7271 166.027 22.7381 165.983 22.7602L163.223 23.5946C163.223 23.5946 163.206 23.5946 163.201 23.6001C163.178 23.6057 163.156 23.6112 163.14 23.6222C162.858 23.7383 162.664 24.0146 162.664 24.3351V27.1918H159.699V30.6398C159.699 30.6398 159.699 30.673 159.705 30.6896C159.716 30.8387 159.766 30.9824 159.849 31.0984C159.987 31.2863 160.214 31.4134 160.474 31.4134H162.664V38.4862C162.664 40.8236 163.278 42.4426 164.517 43.3488C165.756 44.255 167.88 44.5424 170.9 44.1998V41.0225C170.9 40.9673 170.895 40.9175 170.883 40.8678C170.878 40.8457 170.872 40.8236 170.867 40.807C170.867 40.796 170.867 40.7904 170.861 40.7849C170.861 40.7628 170.85 40.7407 170.839 40.7241C170.834 40.7131 170.828 40.6965 170.823 40.6854C170.812 40.6633 170.8 40.6412 170.789 40.6247C170.657 40.4036 170.419 40.2544 170.148 40.2489H170.126C170.087 40.2489 170.048 40.2544 170.01 40.2544C169.55 40.2655 169.147 40.26 168.793 40.2379C168.223 40.2047 167.791 40.05 167.498 39.7792C167.2 39.5085 167.056 39.0775 167.056 38.4862V31.4134H170.9Z" fill="#F9F9F9"/>
<path d="M179.014 20.561C178.483 20.0194 177.842 19.7432 177.09 19.7432C176.337 19.7432 175.734 20.0194 175.203 20.561C174.667 21.1025 174.401 21.7379 174.401 22.4673C174.401 23.1967 174.667 23.8211 175.203 24.3516C175.734 24.8875 176.365 25.1528 177.09 25.1528C177.814 25.1528 178.483 24.8875 179.014 24.3516C179.545 23.8211 179.816 23.1912 179.816 22.4673C179.816 21.7434 179.545 21.1025 179.014 20.561ZM174.91 27.1917V44.1997H179.302V27.1917H174.91Z" fill="#F9F9F9"/>
<path d="M199.226 27.1918H195.608V29.2031C194.292 27.5454 192.439 26.7166 190.06 26.7166C187.682 26.7166 185.84 27.5841 184.219 29.3191C182.593 31.0542 181.786 33.1816 181.786 35.6957C181.786 38.2099 182.593 40.3373 184.219 42.0723C185.84 43.8074 187.787 44.6749 190.06 44.6749C192.334 44.6749 194.292 43.8516 195.608 42.1939V44.1997H200V27.9654C200 27.5399 199.652 27.1918 199.226 27.1918ZM194.264 39.1493C193.368 40.0444 192.234 40.492 190.873 40.492C189.513 40.492 188.39 40.0444 187.505 39.1493C186.62 38.2541 186.177 37.1048 186.177 35.6957C186.177 34.2867 186.62 33.1429 187.505 32.2422C188.39 31.347 189.513 30.8995 190.873 30.8995C192.234 30.8995 193.368 31.347 194.264 32.2422C195.16 33.1429 195.608 34.2922 195.608 35.6957C195.608 37.0992 195.16 38.2541 194.264 39.1493Z" fill="#F9F9F9"/>
<path d="M19.9954 58.5057C14.4808 58.5057 9.49707 56.2733 5.89621 52.665C2.43916 49.217 0.254302 44.5202 0.0662383 39.3096C0.0662383 39.1714 0.0551758 39.0222 0.0551758 38.8841V29.181C0.127082 28.5732 0.586179 28.0759 1.18356 27.9543H38.7741C39.4213 28.0925 39.9136 28.6672 39.9136 29.3579V39.0996C39.9136 39.1659 39.9136 39.2377 39.9025 39.3096C39.7255 44.5147 37.5407 49.206 34.0947 52.654C30.4883 56.2678 25.4991 58.5057 19.9899 58.5057H19.9954Z" fill="#D5AC61"/>
<path d="M28.5414 14.7535C29.2715 14.7535 29.9629 14.6098 30.599 14.3557C29.5093 13.4716 29.0005 11.9796 29.4374 10.554C29.6421 9.89093 30.0182 9.32731 30.5105 8.90737L29.62 6.20532L27.3743 7.9459C27.5402 8.5703 27.5457 9.24996 27.3411 9.91303C26.882 11.4105 25.5268 12.383 24.0444 12.4327C25.0401 13.8418 26.6829 14.759 28.5414 14.759V14.7535Z" fill="#D5AC61"/>
<path d="M11.2009 14.7535C10.4708 14.7535 9.77941 14.6098 9.14331 14.3557C10.233 13.4716 10.7418 11.9796 10.3049 10.554C10.1002 9.89093 9.72409 9.32731 9.23181 8.90737L10.1223 6.20532L12.368 7.9459C12.2021 8.5703 12.1966 9.24996 12.4012 9.91303C12.8603 11.4105 14.2155 12.383 15.6979 12.4327C14.7022 13.8418 13.0595 14.759 11.2009 14.759V14.7535Z" fill="#D5AC61"/>
<path d="M38.0219 8.57025C38.1215 8.67524 38.2487 8.75812 38.387 8.81338C38.4091 8.82443 38.4257 8.82995 38.4478 8.83548L38.7742 8.03426L38.0274 8.57025H38.0219ZM19.8738 1.29297L19.3594 2.02235C19.5142 2.09971 19.6857 2.14944 19.8738 2.14944C20.0618 2.14944 20.2333 2.10524 20.3827 2.02235L19.8738 1.29849V1.29297ZM0.973389 8.03426L1.3108 8.86863C1.36611 8.85206 1.42142 8.83548 1.47674 8.81338C1.59289 8.76365 1.69799 8.69734 1.78649 8.61445L0.973389 8.03426Z" fill="#D5AC61"/>
<path d="M38.448 8.8355L33.2099 21.8318L33.1878 21.876V21.8871C33.044 22.2076 32.7176 22.4231 32.347 22.4231H7.40651C7.03038 22.4231 6.70403 22.1965 6.56575 21.876L6.54363 21.8373L1.31104 8.86865C1.36635 8.85207 1.42166 8.8355 1.47697 8.81339C1.59313 8.76366 1.69822 8.69736 1.78673 8.61447L4.86212 10.8247C5.62543 13.6262 8.19195 15.6873 11.2397 15.6873C14.8903 15.6873 17.844 12.7366 17.844 9.08968C17.844 7.80773 17.4734 6.60313 16.8373 5.59194L19.3651 2.01685C19.52 2.0942 19.6915 2.14394 19.8795 2.14394C20.0676 2.14394 20.2391 2.09973 20.3884 2.01685L22.9107 5.59747C22.2801 6.61419 21.9095 7.81325 21.9095 9.0952C21.9095 12.7421 24.8632 15.6928 28.5083 15.6928C31.5561 15.6928 34.1226 13.6318 34.8859 10.8303L38.0277 8.57579C38.1272 8.68078 38.2545 8.76366 38.3927 8.81892C38.4149 8.82997 38.4314 8.8355 38.4536 8.84102L38.448 8.8355Z" fill="#D5AC61"/>
<path d="M38.7852 8.89639C39.3779 8.89639 39.8583 8.41645 39.8583 7.82442C39.8583 7.23238 39.3779 6.75244 38.7852 6.75244C38.1926 6.75244 37.7122 7.23238 37.7122 7.82442C37.7122 8.41645 38.1926 8.89639 38.7852 8.89639Z" fill="#D5AC61"/>
<path d="M29.6588 7.19449C30.2514 7.19449 30.7318 6.71455 30.7318 6.12251C30.7318 5.53048 30.2514 5.05054 29.6588 5.05054C29.0661 5.05054 28.5857 5.53048 28.5857 6.12251C28.5857 6.71455 29.0661 7.19449 29.6588 7.19449Z" fill="#D5AC61"/>
<path d="M19.8795 2.14395C20.4721 2.14395 20.9525 1.66401 20.9525 1.07198C20.9525 0.47994 20.4721 0 19.8795 0C19.2868 0 18.8064 0.47994 18.8064 1.07198C18.8064 1.66401 19.2868 2.14395 19.8795 2.14395Z" fill="#D5AC61"/>
<path d="M10.0338 7.19449C10.6264 7.19449 11.1068 6.71455 11.1068 6.12251C11.1068 5.53048 10.6264 5.05054 10.0338 5.05054C9.44112 5.05054 8.96069 5.53048 8.96069 6.12251C8.96069 6.71455 9.44112 7.19449 10.0338 7.19449Z" fill="#D5AC61"/>
<path d="M1.07307 8.89639C1.66571 8.89639 2.14614 8.41645 2.14614 7.82442C2.14614 7.23238 1.66571 6.75244 1.07307 6.75244C0.480429 6.75244 0 7.23238 0 7.82442C0 8.41645 0.480429 8.89639 1.07307 8.89639Z" fill="#D5AC61"/>
</svg>
